<svg width="17" height="16" viewBox="0 0 17 16" fill="none" xmlns="http://www.w3.org/2000/svg">
<g clip-path="url(#clip0_83_1873)">
<path d="M15.2279 6.66666C15.5324 8.16086 15.3154 9.71427 14.6131 11.0679C13.9109 12.4214 12.7658 13.4934 11.3689 14.1049C9.972 14.7164 8.40767 14.8305 6.93678 14.4282C5.4659 14.026 4.17738 13.1316 3.2861 11.8943C2.39482 10.657 1.95466 9.15148 2.03902 7.62892C2.12338 6.10635 2.72717 4.65872 3.74968 3.52744C4.7722 2.39616 6.15163 1.64961 7.65796 1.4123C9.16428 1.17498 10.7064 1.46123 12.0272 2.22333" stroke="#22C55E" stroke-width="2" stroke-linecap="round" stroke-linejoin="round"/>
<path d="M6.69385 7.33329L8.69385 9.33329L15.3605 2.66663" stroke="#22C55E" stroke-width="2" stroke-linecap="round" stroke-linejoin="round"/>
</g>
<defs>
<clipPath id="clip0_83_1873">
<rect width="16" height="16" fill="white" transform="translate(0.693848)"/>
</clipPath>
</defs>
</svg>
