<svg width="21" height="20" viewBox="0 0 21 20" fill="none" xmlns="http://www.w3.org/2000/svg">
<path d="M9.7824 3.9V7.13333C9.78173 7.53603 9.66199 7.92954 9.43824 8.26435C9.21448 8.59916 8.89671 8.86033 8.5249 9.015C8.27896 9.11667 8.0152 9.16823 7.74907 9.16667H4.51574C3.97791 9.16446 3.46286 8.94926 3.08334 8.56818C2.70381 8.18709 2.49073 7.67117 2.49074 7.13333V3.90833C2.49073 3.3705 2.70381 2.85457 3.08334 2.47349C3.46286 2.0924 3.97791 1.8772 4.51574 1.875H7.74907C8.2869 1.875 8.80283 2.08808 9.18392 2.4676C9.565 2.84712 9.7802 3.36217 9.7824 3.9ZM18.7407 3.90833V7.13333C18.7425 7.3996 18.6911 7.66354 18.5895 7.90967C18.4879 8.15581 18.3381 8.37917 18.1491 8.56667C17.9628 8.75801 17.7399 8.90978 17.4936 9.01288C17.2473 9.11598 16.9827 9.16829 16.7157 9.16667H13.4824C13.0807 9.16615 12.688 9.04711 12.3536 8.82447C12.0192 8.60182 11.7579 8.28546 11.6024 7.915C11.4994 7.66736 11.4473 7.40153 11.4491 7.13333V3.90833C11.4484 3.64147 11.5011 3.37718 11.6042 3.13102C11.7072 2.88485 11.8585 2.6618 12.0491 2.475C12.2364 2.28517 12.4596 2.1344 12.7056 2.03141C12.9517 1.92842 13.2157 1.87526 13.4824 1.875H16.7157C17.2536 1.8772 17.7686 2.0924 18.1481 2.47349C18.5277 2.85457 18.7407 3.3705 18.7407 3.90833ZM9.7824 12.875V16.1C9.7802 16.6378 9.565 17.1529 9.18392 17.5324C8.80283 17.9119 8.2869 18.125 7.74907 18.125H4.51574C3.97874 18.1239 3.46378 17.9114 3.0824 17.5333C2.89333 17.3458 2.7436 17.1225 2.642 16.8763C2.5404 16.6302 2.48898 16.3663 2.49074 16.1V12.875C2.48898 12.6087 2.5404 12.3448 2.642 12.0987C2.7436 11.8525 2.89333 11.6292 3.0824 11.4417C3.46209 11.059 3.97673 10.8406 4.51574 10.8333H7.74907C8.28843 10.8377 8.80433 11.0545 9.18495 11.4367C9.56557 11.8188 9.78023 12.3356 9.7824 12.875ZM18.7407 14.4833C18.7391 15.2029 18.5243 15.9058 18.1235 16.5034C17.7227 17.101 17.1539 17.5665 16.4888 17.841C15.8237 18.1156 15.0922 18.1871 14.3866 18.0463C13.6809 17.9055 13.0328 17.5588 12.524 17.05C12.0152 16.5412 11.6686 15.8931 11.5278 15.1875C11.387 14.4819 11.4584 13.7503 11.733 13.0852C12.0076 12.4202 12.4731 11.8513 13.0707 11.4505C13.6683 11.0498 14.3712 10.835 15.0907 10.8333C15.8128 10.8353 16.5182 11.0505 17.1184 11.4518C17.7187 11.8531 18.1871 12.4227 18.4649 13.0892C18.6482 13.5308 18.7416 14.005 18.7407 14.4833Z" fill="white"/>
</svg>
