<svg width="20" height="20" viewBox="0 0 20 20" fill="none" xmlns="http://www.w3.org/2000/svg">
<path d="M8.65375 1.7224C9.5203 1.38908 10.4797 1.38908 11.3462 1.7224L17.5487 4.1074C17.9024 4.24355 18.2064 4.48365 18.4209 4.79605C18.6353 5.10844 18.75 5.47848 18.75 5.8574V14.1399C18.75 14.5188 18.6353 14.8888 18.4209 15.2012C18.2064 15.5136 17.9024 15.7537 17.5487 15.8899L11.3462 18.2761C10.4797 18.6095 9.5203 18.6095 8.65375 18.2761L2.4525 15.8899C2.09866 15.7539 1.79434 15.5139 1.57966 15.2015C1.36499 14.8891 1.25005 14.519 1.25 14.1399V5.8574C1.25005 5.47834 1.36499 5.10819 1.57966 4.79578C1.79434 4.48336 2.09866 4.24335 2.4525 4.1074L8.65375 1.7224ZM10.8975 2.88865C10.3198 2.66644 9.6802 2.66644 9.1025 2.88865L7.3725 3.5549L14.36 6.1999L16.795 5.1574L10.8975 2.88865ZM17.5 6.21365L10.625 9.1624V17.1974C10.7167 17.1741 10.8075 17.1449 10.8975 17.1099L17.1 14.7249C17.2179 14.6794 17.3192 14.5993 17.3906 14.4951C17.462 14.3909 17.5001 14.2675 17.5 14.1411V6.21365ZM9.375 17.1961V9.1624L2.5 6.2149V14.1399C2.49987 14.2662 2.53802 14.3896 2.60943 14.4938C2.68083 14.598 2.78214 14.6782 2.9 14.7236L9.1025 17.1086C9.19167 17.1436 9.2825 17.1728 9.375 17.1961ZM3.205 5.1574L10 8.0699L12.705 6.9099L5.62125 4.2274L3.205 5.1574Z" fill="white" fill-opacity="0.6"/>
</svg>
