<svg width="25" height="24" viewBox="0 0 25 24" fill="none" xmlns="http://www.w3.org/2000/svg">
<path d="M13.2017 2.586C12.8267 2.2109 12.3181 2.00011 11.7877 2H4.61572C4.08529 2 3.57658 2.21071 3.20151 2.58579C2.82644 2.96086 2.61572 3.46957 2.61572 4V11.172C2.61584 11.7024 2.82662 12.211 3.20172 12.586L11.9057 21.29C12.3602 21.7416 12.975 21.9951 13.6157 21.9951C14.2565 21.9951 14.8712 21.7416 15.3257 21.29L21.9057 14.71C22.3574 14.2555 22.6109 13.6408 22.6109 13C22.6109 12.3592 22.3574 11.7445 21.9057 11.29L13.2017 2.586Z" stroke="#3B82F6" stroke-width="2" stroke-linecap="round" stroke-linejoin="round"/>
<path d="M8.11572 8C8.39187 8 8.61572 7.77614 8.61572 7.5C8.61572 7.22386 8.39187 7 8.11572 7C7.83958 7 7.61572 7.22386 7.61572 7.5C7.61572 7.77614 7.83958 8 8.11572 8Z" fill="black" stroke="#3B82F6" stroke-width="2" stroke-linecap="round" stroke-linejoin="round"/>
</svg>
