<svg width="21" height="20" viewBox="0 0 21 20" fill="none" xmlns="http://www.w3.org/2000/svg">
<path d="M7.29824 6.29331L6.70908 5.70414M9.76574 16.8283L3.68407 10.7466C3.37574 10.4383 3.20074 10.0216 3.19491 9.58664L3.11574 3.34581C3.11406 3.23426 3.13478 3.12352 3.17669 3.02014C3.2186 2.91675 3.28084 2.82284 3.35972 2.74396C3.43861 2.66507 3.53252 2.60283 3.6359 2.56092C3.73929 2.51901 3.85003 2.49829 3.96157 2.49997L10.2024 2.57914C10.6382 2.58427 11.0546 2.75987 11.3624 3.06831L17.4441 9.14997C18.0057 9.71081 18.4374 10.7825 17.7974 11.4225L12.0391 17.1808C11.3982 17.8216 10.3266 17.3891 9.76574 16.8283Z" stroke="white" stroke-opacity="0.6" stroke-width="1.25" stroke-linecap="round" stroke-linejoin="round"/>
</svg>
