<svg width="21" height="20" viewBox="0 0 21 20" fill="none" xmlns="http://www.w3.org/2000/svg">
<path d="M11.4491 2.5C11.8695 2.49987 12.2745 2.65867 12.5829 2.94458C12.8912 3.23049 13.08 3.62237 13.1116 4.04167L13.1157 4.16667V7.5H15.6157C16.0362 7.49987 16.4412 7.65867 16.7495 7.94458C17.0578 8.23049 17.2467 8.62237 17.2782 9.04167L17.2824 9.16667V15.8333H18.1157C18.3281 15.8336 18.5324 15.9149 18.6869 16.0607C18.8413 16.2065 18.9343 16.4058 18.9467 16.6178C18.9592 16.8299 18.8902 17.0386 18.7538 17.2015C18.6175 17.3644 18.4241 17.4691 18.2132 17.4942L18.1157 17.5H3.11574C2.90334 17.4998 2.69904 17.4184 2.5446 17.2726C2.39015 17.1268 2.29721 16.9275 2.28476 16.7155C2.27231 16.5035 2.3413 16.2947 2.47762 16.1318C2.61395 15.9689 2.80732 15.8643 3.01824 15.8392L3.11574 15.8333H3.94907V4.16667C3.94894 3.74619 4.10774 3.34119 4.39365 3.03288C4.67956 2.72456 5.07144 2.5357 5.49074 2.50417L5.61574 2.5H11.4491ZM15.6157 9.16667H13.1157V15.8333H15.6157V9.16667ZM11.4491 4.16667H5.61574V15.8333H11.4491V4.16667ZM9.7824 12.5V14.1667H7.2824V12.5H9.7824ZM9.7824 9.16667V10.8333H7.2824V9.16667H9.7824ZM9.7824 5.83333V7.5H7.2824V5.83333H9.7824Z" fill="white" fill-opacity="0.6"/>
</svg>
