<svg width="21" height="20" viewBox="0 0 21 20" fill="none" xmlns="http://www.w3.org/2000/svg">
<path d="M13.1157 15.94C13.8266 16.1462 14.5631 16.2505 15.3032 16.25C16.4937 16.2528 17.6688 15.9814 18.7374 15.4567C18.7396 15.4089 18.7407 15.3608 18.7407 15.3125C18.7408 14.5774 18.5052 13.8617 18.0686 13.2703C17.6319 12.6789 17.0172 12.2431 16.3147 12.0269C15.6121 11.8106 14.8587 11.8252 14.1651 12.0686C13.4715 12.312 12.8741 12.7713 12.4607 13.3792M13.1157 15.94V15.9375C13.1157 15.01 12.8782 14.1375 12.4607 13.3792M13.1157 15.94V16.0283C11.5123 16.995 9.67469 17.5039 7.80241 17.5C5.85991 17.5 4.04241 16.9625 2.49074 16.0283L2.48991 15.9375C2.48927 14.7579 2.88125 13.6116 3.60406 12.6794C4.32687 11.7472 5.33938 11.082 6.48198 10.7888C7.62458 10.4956 8.83226 10.5911 9.91463 11.0601C10.997 11.5291 11.8933 12.345 12.4607 13.3792M10.6157 5.3125C10.6157 6.05842 10.3194 6.77379 9.79198 7.30124C9.26453 7.82868 8.54916 8.125 7.80324 8.125C7.05732 8.125 6.34195 7.82868 5.8145 7.30124C5.28706 6.77379 4.99074 6.05842 4.99074 5.3125C4.99074 4.56658 5.28706 3.85121 5.8145 3.32376C6.34195 2.79632 7.05732 2.5 7.80324 2.5C8.54916 2.5 9.26453 2.79632 9.79198 3.32376C10.3194 3.85121 10.6157 4.56658 10.6157 5.3125ZM17.4907 7.1875C17.4907 7.76766 17.2603 8.32406 16.85 8.7343C16.4398 9.14453 15.8834 9.375 15.3032 9.375C14.7231 9.375 14.1667 9.14453 13.7564 8.7343C13.3462 8.32406 13.1157 7.76766 13.1157 7.1875C13.1157 6.60734 13.3462 6.05094 13.7564 5.6407C14.1667 5.23047 14.7231 5 15.3032 5C15.8834 5 16.4398 5.23047 16.85 5.6407C17.2603 6.05094 17.4907 6.60734 17.4907 7.1875Z" stroke="white" stroke-opacity="0.6" stroke-width="1.25" stroke-linecap="round" stroke-linejoin="round"/>
</svg>
