<svg width="25" height="24" viewBox="0 0 25 24" fill="none" xmlns="http://www.w3.org/2000/svg">
<path d="M16.6157 21V19C16.6157 17.9391 16.1943 16.9217 15.4441 16.1716C14.694 15.4214 13.6766 15 12.6157 15H6.61572C5.55486 15 4.53744 15.4214 3.7873 16.1716C3.03715 16.9217 2.61572 17.9391 2.61572 19V21" stroke="#2C2D5B" stroke-width="2" stroke-linecap="round" stroke-linejoin="round"/>
<path d="M16.6157 3.12805C17.4735 3.35042 18.2331 3.85132 18.7754 4.55211C19.3177 5.25291 19.6119 6.11394 19.6119 7.00005C19.6119 7.88616 19.3177 8.74719 18.7754 9.44799C18.2331 10.1488 17.4735 10.6497 16.6157 10.8721" stroke="#2C2D5B" stroke-width="2" stroke-linecap="round" stroke-linejoin="round"/>
<path d="M22.6157 21V19C22.6151 18.1137 22.3201 17.2528 21.7771 16.5523C21.2341 15.8519 20.4739 15.3516 19.6157 15.13" stroke="#2C2D5B" stroke-width="2" stroke-linecap="round" stroke-linejoin="round"/>
<path d="M9.61572 11C11.8249 11 13.6157 9.20914 13.6157 7C13.6157 4.79086 11.8249 3 9.61572 3C7.40658 3 5.61572 4.79086 5.61572 7C5.61572 9.20914 7.40658 11 9.61572 11Z" stroke="#2C2D5B" stroke-width="2" stroke-linecap="round" stroke-linejoin="round"/>
</svg>
