<svg width="21" height="20" viewBox="0 0 21 20" fill="none" xmlns="http://www.w3.org/2000/svg">
<path d="M13.9491 13.3333V6.66663M10.6157 13.3333V9.16663M7.28241 13.3333V10.8333" stroke="white" stroke-opacity="0.6" stroke-width="1.25" stroke-linecap="round" stroke-linejoin="round"/>
<path d="M3.11575 17V3C3.11575 2.86739 3.16842 2.74021 3.26219 2.64645C3.35596 2.55268 3.48314 2.5 3.61575 2.5H17.6157C17.7484 2.5 17.8755 2.55268 17.9693 2.64645C18.0631 2.74021 18.1157 2.86739 18.1157 3V17C18.1157 17.1326 18.0631 17.2598 17.9693 17.3536C17.8755 17.4473 17.7484 17.5 17.6157 17.5H3.61575C3.48314 17.5 3.35596 17.4473 3.26219 17.3536C3.16842 17.2598 3.11575 17.1326 3.11575 17Z" stroke="white" stroke-opacity="0.6" stroke-width="1.25"/>
</svg>
